# Blender v2.78 (sub 0) OBJ File: ''
# www.blender.org
mtllib enemyFillerMDL.mtl
o Cube
v 0.342668 -0.501343 -0.417261
v -0.007821 -0.501343 1.026981
v -0.404553 -0.501343 -0.417262
v 0.342669 0.501343 -0.417261
v -0.007821 0.501343 1.026981
v -0.404553 0.501343 -0.417261
vn 0.9718 -0.0000 0.2358
vn -0.9643 -0.0000 0.2649
vn 0.0000 0.0000 -1.0000
vn 0.0000 -1.0000 0.0000
vn 0.0000 1.0000 -0.0000
usemtl Material
s off
f 1//1 4//1 5//1 2//1
f 5//2 6//2 3//2 2//2
f 4//3 1//3 3//3 6//3
f 2//4 3//4 1//4
f 5//5 4//5 6//5
